<svg width="1728" height="131" viewBox="0 0 1728 131" fill="none" xmlns="http://www.w3.org/2000/svg">
<g clip-path="url(#clip0_1154_31)">
<path d="M99.7104 46.6343C-37.006 56.7053 -126.395 20.4077 -154 1V442H1769.89C1816.01 301.294 1880.57 19.8831 1769.89 19.8831C1631.55 19.8831 1608.57 71.8118 1562.14 71.8118C1515.7 71.8118 1523.84 19.8831 1454.43 19.8831C1385.02 19.8831 1370.18 71.8118 1314.17 71.8118C1258.16 71.8118 1277.79 30.8983 1071.95 30.8983C866.107 30.8983 918.285 71.8118 732.071 71.8118C545.858 71.8118 553.038 1 408.95 1C264.861 1 270.606 34.0455 99.7104 46.6343Z" fill="black"/>
</g>
<defs>
<clipPath id="clip0_1154_31">
<rect width="1833" height="155" fill="white" transform="translate(-105 -24)"/>
</clipPath>
</defs>
</svg>
